<svg id="Capa_1" data-name="Capa 1" xmlns="http://www.w3.org/2000/svg" viewBox="0 0 563.32 137.88"><defs><style>.cls-1{fill:#fdfdfd;}.cls-2{fill:#0b0b0b;}.cls-3{fill:#ff9f1c;}.cls-4{fill:#0f0f0f;}.cls-5{fill:#010101;}.cls-6{fill:#f8f8f8;}.cls-7{fill:#b7b3b0;}</style></defs><ellipse class="cls-1" cx="342.7" cy="69.84" rx="312" ry="51.43"/><path class="cls-2" d="M538.4,78.06h12v57.73h-12c0-2.61,0-5.29-.06-8s0-5.65,0-8.48V111.1H515.6v24.57c-2.15.58-4.16.23-6.13.29s-3.83,0-5.71,0c-.57-2.19-.75-53.24-.22-57.87h11.87v22.54h23Z" transform="translate(-10.92 -37.13)"/><path class="cls-3" d="M179.16,125.74V113.65H168.45v-9.82c2.15-.52,17.84-.66,22.65-.18v29.9c-3,.71-6.08,1.59-9.21,2.15a50.64,50.64,0,0,1-16.84.5c-9.91-1.58-16.52-7.07-19.39-16.69-2.51-8.4-2.71-16.91.38-25.22,3.37-9.08,10.23-14.32,19.52-16.23a42.65,42.65,0,0,1,25.63,2.74l-3.9,9.51c-3-.86-5.74-2-8.58-2.37a28.47,28.47,0,0,0-9,0c-6.56,1.26-10.53,5.68-12.26,12a29.32,29.32,0,0,0,.4,16.7c1.84,5.94,6.57,9.92,13.31,9.74C173.77,126.33,176.36,126,179.16,125.74Z" transform="translate(-10.92 -37.13)"/><path class="cls-3" d="M335.37,110.8c5.61,8.32,11.11,16.48,16.83,25H338.65l-13.66-22h-6.48v21.94c-2.1.54-4.1.21-6.07.27s-3.82,0-5.7,0c-.63-2.19-.87-51.94-.3-57.86.75,0,1.53-.14,2.31-.14,5.14,0,10.29-.06,15.43,0a34.4,34.4,0,0,1,11,1.71c8.39,2.93,11.06,9,10.81,16.51-.21,6.09-3.39,10.38-8.46,13.42C336.92,110,336.29,110.3,335.37,110.8Z" transform="translate(-10.92 -37.13)"/><path class="cls-3" d="M263.65,78a7.33,7.33,0,0,1,.85-.1h13.95c6.78,19.23,13.56,38.48,20.44,58H285.76c-1.39-4.42-2.81-9-4.26-13.62h-21c-1.4,4.5-2.78,9-4.2,13.58H243.59C243.72,133.66,261.1,83.52,263.65,78Z" transform="translate(-10.92 -37.13)"/><path class="cls-2" d="M418.71,88.14v12.48a86.92,86.92,0,0,0,9.66.18c3.22,0,6.43,0,9.79,0v10.13c-6.49.12-12.9,0-19.42.09v14.65h20.82v9.89c-2.17.54-25.81.74-33.17.24q0-28.77,0-57.72h33.08v10Z" transform="translate(-10.92 -37.13)"/><path class="cls-3" d="M238.22,135.85H205.28V78.08h32.9v10H217.47v12.65H236.6V111H217.41v14.68h20.81Z" transform="translate(-10.92 -37.13)"/><path class="cls-2" d="M493.16,81.39c-1.35,3.4-2.61,6.55-3.91,9.83-2.41-1-4.68-1.92-7-2.73A16.33,16.33,0,0,0,471,88.4c-3.61,1.31-5.6,4.09-7.11,7.38A21.61,21.61,0,0,0,462,104c-.2,4.54-.24,9.06,1.26,13.45,1.84,5.37,5.37,8.45,11.61,9a34.34,34.34,0,0,0,12.2-1.66c1.23-.35,2.48-.65,3.9-1v9.74a16.59,16.59,0,0,1-6.38,2.19c-5.88,1-11.73,1.64-17.67.1-7.3-1.89-12.17-6.43-15.06-13.22a32,32,0,0,1-2.49-11.43c-.17-5-.21-10.07,1.26-15,3.38-11.4,12.2-18.49,24.46-18.79A39.55,39.55,0,0,1,493.16,81.39Z" transform="translate(-10.92 -37.13)"/><path class="cls-4" d="M382,135.85H369.58V88.3H353.93c-.16-3.59,0-6.86-.09-10.24h43.64c.28,3.3.07,6.58.15,10.18H382Z" transform="translate(-10.92 -37.13)"/><path class="cls-1" d="M318.58,88.21a42.37,42.37,0,0,1,8.75.48c4.17.82,6.13,2.75,6.3,6.43.19,4.3-1.72,7.17-5.67,8a28.46,28.46,0,0,1-9.38.55Z" transform="translate(-10.92 -37.13)"/><path class="cls-1" d="M263.61,111.69c2.47-8.19,4.83-16.06,7.34-24.42l7.57,24.42Z" transform="translate(-10.92 -37.13)"/><path class="cls-5" d="M72.28,174.51a2.36,2.36,0,0,1-2.9,0c-3.59-2.11-7.16-4.24-10.76-6.32q-23.25-13.45-46.55-26.86a2,2,0,0,1-1.14-2q0-33.27,0-66.54a2,2,0,0,1,1.2-2q28.64-16.48,57.23-33a1.76,1.76,0,0,0,.44-.26c.71-.65,1.33-.45,2.11,0q14.73,8.57,29.49,17.05,14,8.08,28,16.14A2.22,2.22,0,0,1,130.74,73q-.06,33.09,0,66.2a2.21,2.21,0,0,1-1.32,2.25q-26.79,15.41-53.52,30.87C74.68,173,73.49,173.77,72.28,174.51Z" transform="translate(-10.92 -37.13)"/><path class="cls-6" d="M61.18,127.66c2.93,1.78,5.67,3.3,8.24,5.07,2.12,1.47,4,1.61,6.1.07a17.72,17.72,0,0,1,1.77-1c-.6-.38-1.11-.72-1.64-1-4.19-2.54-8.36-5.12-12.61-7.58a3.1,3.1,0,0,1-1.77-3.49c.08-.56,0-1.14.1-1.71a2.21,2.21,0,0,0-.73-2,4.16,4.16,0,0,1,.34-6,4.44,4.44,0,0,1,5.79.15,4.22,4.22,0,0,1-.06,6.12c-.38.37-1.15.51-.95,1.26a5.12,5.12,0,0,0,.8,2.18,13.15,13.15,0,0,0,2.84,2.16c4.44,2.69,8.91,5.32,13.37,8,1.07.65,2.12,1.31,3.34,2.07-.43.28-.73.51-1,.69-3.49,1.94-7,3.81-10.46,5.83a3.71,3.71,0,0,1-4.3-.07c-2.51-1.59-5.06-3.1-7.62-4.6a3,3,0,0,1-1.65-3.1C61.13,129.78,61.12,128.87,61.18,127.66Z" transform="translate(-10.92 -37.13)"/><path class="cls-6" d="M55.58,132.19c-1.08-.64-2-1.14-2.83-1.67-2.82-1.74-5.59-3.54-8.44-5.22a3.8,3.8,0,0,1-2.09-3.93c.2-2.73.29-5.47.33-8.21A3.43,3.43,0,0,1,45,109.5c.68-.24,1.32-.6,2-.93,0,1.87,0,3.62,0,5.37s-.11,3.54-.19,5.3A3.56,3.56,0,0,0,49,123c.77.35,1.49.81,2.46,1.35.1-1.25.25-2.35.28-3.45.15-4.39.31-8.79.37-13.18,0-1.43.4-2.43,1.81-2.93.47-.17.9-.48,1.36-.7a2.45,2.45,0,0,0,1.54-1.81A4.24,4.24,0,0,1,61,99.12a4.39,4.39,0,0,1,4,3.44,4.24,4.24,0,0,1-5.12,5c-.65-.15-1.24-.54-1.91,0a3.21,3.21,0,0,0-1.36,2.09c-.12,1.08-.26,2.16-.3,3.24Q56,122,55.67,131.06C55.66,131.34,55.63,131.62,55.58,132.19Z" transform="translate(-10.92 -37.13)"/><path class="cls-6" d="M64.92,80.32,76.28,87.7c1,.65,2,1.32,3,2a2.39,2.39,0,0,1,1.3,2.56c0,.28,0,.58,0,.85a3.59,3.59,0,0,0,.9,3.37c1.53,1.89,1.07,4.2-.85,5.74a4.14,4.14,0,0,1-5.71-.5A4.34,4.34,0,0,1,75,95.89c.38-.44,1.13-.61,1-1.46a3.33,3.33,0,0,0-1.21-2.36c-.74-.54-1.46-1.1-2.22-1.6l-15.07-9.8c-.42-.27-.81-.59-1.32-1,2-1,3.75-2,5.57-2.89,2.19-1.11,4.4-2.16,6.56-3.33a3.09,3.09,0,0,1,3.51.16c2.66,1.77,5.34,3.5,8,5.22a2.73,2.73,0,0,1,1.36,2.9c-.13,1-.22,1.92-.34,3-.54-.33-1-.62-1.54-.95-2.32-1.56-4.66-3.09-7-4.69A4.12,4.12,0,0,0,67.26,79C66.56,79.42,65.81,79.81,64.92,80.32Z" transform="translate(-10.92 -37.13)"/><path class="cls-3" d="M96.39,112.88l-8,4.48c-2.24,1.26-4.49,2.48-6.7,3.79a2.9,2.9,0,0,1-3.64-.11c-.31-.25-.69-.41-1-.65a4,4,0,0,0-3-.76,4,4,0,0,1-4.46-5,4.29,4.29,0,0,1,4.16-3.39,4.38,4.38,0,0,1,4.13,3.46c.1.47.14,1.17.45,1.35a3.38,3.38,0,0,0,2,.4,6.41,6.41,0,0,0,2.21-.81c5.58-3.12,11.13-6.28,16.7-9.43.48-.27,1-.52,1.6-.84,0,.56.07.95.07,1.34,0,3.88-.08,7.77,0,11.65a4,4,0,0,1-2.44,4.1c-2.34,1.18-4.59,2.55-6.88,3.83a10.67,10.67,0,0,1-1.21.63,2.66,2.66,0,0,1-2.75-.24c-.83-.61-1.71-1.14-2.68-1.77,2.5-1.38,5-2.75,7.45-4.1.5-.28,1-.52,1.52-.8a4.34,4.34,0,0,0,2.56-4.59A23.35,23.35,0,0,1,96.39,112.88Z" transform="translate(-10.92 -37.13)"/><path class="cls-6" d="M84.73,79.52l5.92,3.3c1.94,1.08,3.86,2.21,5.84,3.24a3.48,3.48,0,0,1,2,3.45c0,3,0,5.95,0,8.92a3.13,3.13,0,0,1-2.14,3.32,24.78,24.78,0,0,0-2.26,1.17c0-.54-.09-1-.09-1.39,0-3-.06-6,0-8.92a3.87,3.87,0,0,0-2.39-4.11c-.77-.35-1.51-.79-2.41-1.27-.06.57-.13,1-.13,1.4,0,5,0,10,.08,14.93,0,1.7-.46,2.87-2,3.52-.32.13-.59.38-.91.49a2.08,2.08,0,0,0-1.37,1.75c-.56,2.9-4.34,4.05-6.71,2.21a4.25,4.25,0,0,1,3.1-7.54,2,2,0,0,1,.33.08c1.8.37,2.43,0,2.93-1.78a8,8,0,0,0,.23-2.19c0-6.24,0-12.47,0-18.7C84.72,80.83,84.73,80.26,84.73,79.52Z" transform="translate(-10.92 -37.13)"/><path class="cls-7" d="M40.41,105.92c.1-2.14.2-4,.27-5.89.1-2.46.23-4.91.25-7.36a3.59,3.59,0,0,1,2.14-3.56q4.08-2,8.06-4.16a3,3,0,0,1,3.77.35A25.76,25.76,0,0,0,57,86.82c-1.78,1-3.44,1.85-5.12,2.72-1.52.79-3,1.55-4.58,2.33a3.55,3.55,0,0,0-2,3.46c0,1,0,1.94,0,3.08,1.17-.58,2.22-1.09,3.26-1.62,3.8-2,7.63-3.89,11.37-6a3.32,3.32,0,0,1,4.22.3,2.4,2.4,0,0,0,2.61.47,4.21,4.21,0,0,1,5.17,3,4.33,4.33,0,0,1-2.78,5,4.27,4.27,0,0,1-5.39-2.65c-.5-1.4-1-1.85-2.48-1.54a14.51,14.51,0,0,0-3.49,1.33c-5.31,2.76-10.6,5.57-15.9,8.35C41.47,105.41,41.06,105.61,40.41,105.92Z" transform="translate(-10.92 -37.13)"/><path class="cls-5" d="M63.69,115.55a2.29,2.29,0,1,1,2.47-2.14A2.45,2.45,0,0,1,63.69,115.55Z" transform="translate(-10.92 -37.13)"/><path class="cls-5" d="M60.86,105.7a2.27,2.27,0,0,1-2.33-2.37,2.32,2.32,0,0,1,2.31-2.21,2.15,2.15,0,0,1,2.3,2.17A2.27,2.27,0,0,1,60.86,105.7Z" transform="translate(-10.92 -37.13)"/><path class="cls-5" d="M78.08,96.52A2.28,2.28,0,0,1,80.38,99a2.4,2.4,0,0,1-2.27,2.14,2.26,2.26,0,0,1-2.33-2.4A2.09,2.09,0,0,1,78.08,96.52Z" transform="translate(-10.92 -37.13)"/><path class="cls-5" d="M76.06,115.46a2.49,2.49,0,0,1-2.39,2.38,2.35,2.35,0,0,1,.08-4.69A2.47,2.47,0,0,1,76.06,115.46Z" transform="translate(-10.92 -37.13)"/><path class="cls-5" d="M83.13,108.2a2.21,2.21,0,0,1-2.25,2.29,2.3,2.3,0,0,1-2.35-2.22,2.33,2.33,0,0,1,2.36-2.39A2.27,2.27,0,0,1,83.13,108.2Z" transform="translate(-10.92 -37.13)"/><path class="cls-5" d="M67.73,98a2.3,2.3,0,0,1-2.25-2.31,2.36,2.36,0,0,1,2.18-2.41A2.36,2.36,0,1,1,67.73,98Z" transform="translate(-10.92 -37.13)"/></svg>