<svg xmlns="http://www.w3.org/2000/svg" viewBox="0 0 349.14 401.75"><defs><style>.cls-1{fill:#010101;}.cls-2{fill:#f8f8f8;}.cls-3{fill:#ff9f1c;}.cls-4{fill:#b7b3b0;}</style></defs><g id="Capa_2" data-name="Capa 2"><g id="Capa_1-2" data-name="Capa 1"><path class="cls-1" d="M178.8,400.29a6.86,6.86,0,0,1-8.47,0c-10.44-6.14-20.84-12.35-31.33-18.41Q71.22,342.69,3.36,303.63C.81,302.17,0,300.62,0,297.8q.12-96.95,0-193.9c0-3,1.1-4.34,3.51-5.73Q86.93,50.14,170.25,2a7.39,7.39,0,0,0,1.29-.75c2.07-1.9,3.87-1.32,6.14,0q42.91,24.93,85.93,49.66c27.22,15.7,54.4,31.47,81.67,47.05,2.83,1.62,3.87,3.25,3.86,6.57q-.18,96.45,0,192.89c0,3.32-1,4.94-3.86,6.56q-78,44.87-155.95,90C185.78,396,182.31,398.16,178.8,400.29Z"/><path class="cls-2" d="M146.44,263.78c8.54,5.21,16.54,9.61,24,14.79,6.17,4.27,11.76,4.68,17.77.18a59,59,0,0,1,5.15-3c-1.73-1.1-3.22-2.09-4.75-3-12.24-7.4-24.39-14.93-36.76-22.09-4.22-2.44-5.86-5.51-5.16-10.17.25-1.64.08-3.33.29-5,.29-2.31-.48-3.93-2.14-5.68a12.13,12.13,0,0,1,1-17.39c4.5-4.07,12.78-3.85,16.9.44a12.33,12.33,0,0,1-.18,17.83c-1.11,1.07-3.35,1.48-2.78,3.67s.91,4.82,2.33,6.34A38.21,38.21,0,0,0,170.4,247c12.93,7.84,26,15.52,38.95,23.28,3.12,1.87,6.19,3.82,9.75,6-1.26.83-2.13,1.48-3.07,2-10.17,5.64-20.46,11.09-30.49,17-4.46,2.62-8.25,2.52-12.53-.19-7.29-4.63-14.74-9-22.19-13.41-3.52-2.07-5.26-4.86-4.81-9C146.29,270,146.28,267.31,146.44,263.78Z"/><path class="cls-2" d="M130.14,277c-3.15-1.85-5.74-3.3-8.26-4.86-8.2-5.06-16.29-10.31-24.59-15.21-4.52-2.67-6.49-6.13-6.09-11.44.59-8,.85-15.95,1-23.93.08-5.24,1.93-8.92,7.11-10.67,2-.68,3.85-1.74,6-2.7,0,5.45.08,10.54,0,15.63s-.33,10.31-.56,15.47c-.23,5,1.59,8.68,6.28,10.85,2.23,1,4.32,2.38,7.14,3.94.31-3.66.73-6.84.83-10,.44-12.81.9-25.61,1.06-38.42.06-4.16,1.18-7.08,5.27-8.54a44.24,44.24,0,0,0,4-2.05,7.1,7.1,0,0,0,4.47-5.26A12.33,12.33,0,0,1,146,180.63a12.76,12.76,0,0,1,11.55,10,12.34,12.34,0,0,1-14.91,14.6c-1.91-.43-3.61-1.58-5.57.06s-3.66,3.43-4,6.09c-.35,3.13-.75,6.27-.87,9.42-.65,17.62-1.22,35.25-1.82,52.88C130.36,274.52,130.27,275.33,130.14,277Z"/><path class="cls-2" d="M157.36,125.85l33.09,21.51c2.92,1.9,5.83,3.83,8.79,5.68,2.8,1.74,4.32,4.05,3.8,7.46-.12.82,0,1.69-.16,2.49-.86,3.75.05,6.66,2.62,9.82,4.46,5.48,3.12,12.22-2.46,16.71-5,4.06-12,3.45-16.63-1.46-4.25-4.52-4.08-11.92.26-16.85,1.11-1.26,3.27-1.76,2.86-4.25-.46-2.73-1.25-5.17-3.55-6.88-2.14-1.58-4.25-3.2-6.47-4.65q-21.93-14.31-43.9-28.56c-1.22-.8-2.37-1.71-3.85-2.78,5.67-2.93,10.94-5.69,16.24-8.39,6.37-3.25,12.83-6.31,19.1-9.71,3.65-2,6.81-1.85,10.24.45,7.73,5.17,15.56,10.21,23.4,15.22a8,8,0,0,1,4,8.44c-.38,2.8-.64,5.61-1,8.86-1.56-1-3.05-1.81-4.47-2.76-6.77-4.54-13.57-9-20.25-13.68-4.88-3.41-9.68-4-14.81-.64C162.13,123.24,159.93,124.36,157.36,125.85Z"/><path class="cls-3" d="M249,220.71l-23.31,13.07c-6.52,3.66-13.09,7.23-19.53,11-3.72,2.21-7.12,2.45-10.59-.32-.91-.72-2-1.19-2.94-1.88a11.64,11.64,0,0,0-8.74-2.24c-8.63.86-14.63-6.16-13-14.55A12.43,12.43,0,0,1,183,216,12.79,12.79,0,0,1,195.09,226c.27,1.39.41,3.42,1.3,3.93a9.75,9.75,0,0,0,5.67,1.17,18.31,18.31,0,0,0,6.47-2.36c16.24-9.09,32.43-18.3,48.63-27.46,1.42-.8,2.89-1.53,4.68-2.47.09,1.65.2,2.78.2,3.91,0,11.32-.24,22.64-.06,34,.08,5.64-2,9.36-7.12,11.94-6.82,3.44-13.36,7.42-20,11.16a31.83,31.83,0,0,1-3.52,1.84c-2.77,1.13-5.44,1.16-8-.72-2.42-1.75-5-3.3-7.83-5.15,7.31-4,14.51-8,21.72-12,1.46-.8,3-1.49,4.42-2.31,5.2-2.94,8.26-7,7.48-13.38A68.58,68.58,0,0,1,249,220.71Z"/><path class="cls-2" d="M215.05,123.51l17.26,9.62c5.67,3.16,11.27,6.44,17,9.45,4.17,2.18,6,5.37,5.93,10q-.23,13,0,26c.07,4.73-1.71,7.94-6.23,9.69a69.85,69.85,0,0,0-6.58,3.4c-.1-1.58-.26-2.82-.26-4.05,0-8.66-.19-17.33.11-26,.2-5.67-1.75-9.63-7-12-2.25-1-4.39-2.29-7-3.68-.15,1.64-.35,2.86-.35,4.07,0,14.5-.08,29,.23,43.49.11,5-1.35,8.37-6,10.27-.92.38-1.71,1.09-2.63,1.43-2.41.89-3.51,2.55-4,5.09-1.62,8.47-12.65,11.79-19.55,6.45a12.33,12.33,0,0,1-3.5-14.8c2-4.71,7.6-7.93,12.51-7.19.33.05.65.17,1,.23,5.24,1.1,7.08.09,8.54-5.16a24.09,24.09,0,0,0,.67-6.41q0-27.24-.13-54.48Z"/><path class="cls-4" d="M85.94,200.45c.29-6.23.57-11.7.78-17.18.29-7.15.67-14.3.73-21.45,0-4.82,1.8-8.18,6.24-10.36q11.85-5.84,23.47-12.12c4-2.16,7.51-2,11,1,1.73,1.51,3.75,2.69,6.19,4.42-5.18,2.77-10,5.4-14.89,7.94-4.43,2.3-8.9,4.52-13.35,6.77-4.14,2.09-6,5.53-6,10.1,0,2.82,0,5.64,0,9,3.39-1.68,6.47-3.16,9.5-4.73,11.06-5.73,22.21-11.31,33.12-17.34,4.59-2.53,8.44-2.47,12.28.89,2.31,2,4.45,2.36,7.61,1.36,6.44-2,13.27,2.35,15.09,8.9,1.63,5.88-2.34,13.08-8.12,14.72-6.88,2-13.41-1.26-15.71-7.74-1.44-4.06-3-5.38-7.21-4.47A41.85,41.85,0,0,0,136.52,174c-15.49,8-30.9,16.21-46.34,24.33C89,199,87.81,199.53,85.94,200.45Z"/><path class="cls-1" d="M153.76,228.49a6.68,6.68,0,1,1,7.21-6.22C160.77,225.65,157.36,228.59,153.76,228.49Z"/><path class="cls-1" d="M145.52,199.81a6.62,6.62,0,0,1-6.79-6.9,6.77,6.77,0,0,1,6.72-6.46,6.3,6.3,0,0,1,6.72,6.32A6.63,6.63,0,0,1,145.52,199.81Z"/><path class="cls-1" d="M195.68,173.05a6.65,6.65,0,0,1,6.71,7.1,7,7,0,0,1-6.62,6.25,6.59,6.59,0,0,1-6.79-7C189.05,175.44,191.61,173,195.68,173.05Z"/><path class="cls-1" d="M189.81,228.24a7.29,7.29,0,0,1-7,6.95,6.84,6.84,0,0,1,.23-13.67A7.21,7.21,0,0,1,189.81,228.24Z"/><path class="cls-1" d="M210.4,207.08a6.43,6.43,0,0,1-6.54,6.67,6.71,6.71,0,0,1-6.87-6.46,6.8,6.8,0,0,1,6.88-7A6.61,6.61,0,0,1,210.4,207.08Z"/><path class="cls-1" d="M165.53,177.41a6.73,6.73,0,0,1-6.55-6.76c.06-3.79,2.92-7,6.35-7a6.88,6.88,0,1,1,.2,13.76Z"/></g></g></svg>