<svg xmlns="http://www.w3.org/2000/svg" viewBox="0 0 441.24 72.73"><defs><style>.cls-1{fill:#fdfdfd;}.cls-2{fill:#0b0b0b;}.cls-3{fill:#ff9f1c;}.cls-4{fill:#0f0f0f;}</style></defs><g id="Capa_2" data-name="Capa 2"><g id="Capa_1-2" data-name="Capa 1"><ellipse class="cls-1" cx="220.62" cy="36.37" rx="312" ry="51.43"/><path class="cls-2" d="M417.6,65.25H405.43V62.16c0-6.66,0-13.33,0-20,0-1.69-.05-1.74-1.61-1.74q-9.85,0-19.69,0c-1.58,0-1.62,0-1.63,1.73,0,6.66,0,13.33,0,20v3.09H370.3V10.16c0-.51,0-1,0-1.52-.1-1.13.51-1.31,1.47-1.3,3.43,0,6.85,0,10.45,0,.57,2.51.19,5,.26,7.48s0,5,0,7.58v7.66h22.76c.05-.65.18-1.41.18-2.17,0-5.86,0-11.72,0-17.58,0-3.54-.32-2.92,3.12-3,2.42,0,4.84,0,7.27,0,1.73,0,1.73,0,1.78,1.86v56Z"/><path class="cls-3" d="M46.24,43c-3.1,0-6,0-8.91,0-2,0-2,0-2-1.92,0-2.62,0-5.24,0-8a7.35,7.35,0,0,1,1.42-.26q9.84,0,19.68,0c1.8,0,1.84,0,1.84,1.81,0,8.78,0,17.56,0,26.34a2.07,2.07,0,0,1-1.93,2.43c-3.43.69-6.83,1.63-10.3,2a68,68,0,0,1-11.14.5C27.79,65.62,21.64,63,17,57.35a25,25,0,0,1-5-10.82,42,42,0,0,1,.06-19.71c2.37-9.17,8-15.39,17-18.36A39.71,39.71,0,0,1,52,8.1c2,.52,4,1.23,6.28,1.94l-3.92,9.68c-3-.84-5.77-2-8.69-2.39a26.62,26.62,0,0,0-8.68,0C30.29,18.59,26.19,23,24.45,29.41a29.3,29.3,0,0,0,.43,16.67c1.89,6,6.72,9.88,13.3,9.74.81,0,1.62,0,2.42-.08,1.78-.24,3.55-.55,5.32-.83.11-1.67.26-3.35.3-5C46.28,47.69,46.24,45.49,46.24,43Z"/><path class="cls-3" d="M202.35,40.24c2.88,4.21,5.68,8.27,8.44,12.36s5.45,8.18,8.46,12.71c-1.69,0-2.93.06-4.18.07-2.32,0-4.66-.14-7,0a3.44,3.44,0,0,1-3.59-2c-3.7-6.1-7.53-12.13-11.19-18.26-.93-1.55-1.88-2.43-3.78-2.18a31.46,31.46,0,0,1-4,0v22c-1.68.57-3.29.26-4.86.31-2,0-4,0-6.06,0-1.08,0-1.43-.44-1.36-1.44,0-.5,0-1,0-1.51V10.33c0-.4,0-.81,0-1.21.06-1.72.06-1.76,1.91-1.76,5.66,0,11.32-.14,17,0A32.38,32.38,0,0,1,202.2,9.09c6.35,2.31,10.09,6.59,10.69,13.55.67,7.73-2.48,13.19-9.18,16.79C203.36,39.62,203,39.84,202.35,40.24Z"/><path class="cls-3" d="M165.7,65.38c-4.2,0-8,0-11.85,0-1.3,0-1.41-1-1.66-1.77-1-3.24-2-6.51-3-9.76-.72-2.33-.73-2.34-2.95-2.35-5.76,0-11.51,0-17.27,0-1,0-1.54.17-1.87,1.36-1,3.67-2.27,7.27-3.35,10.92-.29,1-.61,1.61-1.77,1.6-3.82,0-7.64,0-11.79,0,.55-1.77,1-3.27,1.48-4.74q9-25.53,18-51c.82-2.33.82-2.33,3.31-2.34,3.54,0,7.07.08,10.6,0,1.49-.05,2.07.46,2.55,1.85C150.5,21.67,155,34.23,159.39,46.8c1.93,5.48,3.88,11,5.8,16.44C165.39,63.8,165.47,64.4,165.7,65.38Z"/><path class="cls-2" d="M285.59,17.53c0,3.92,0,7.35,0,10.77,0,1.81.1,1.9,1.87,1.91,5.05,0,10.09,0,15.14,0,3.2,0,2.7-.09,2.72,2.78,0,1.52,0,3,0,4.55,0,2.85,0,2.86-2.75,2.86H288.64c-3.53,0-3-.28-3.05,3.08,0,3.73,0,7.46,0,11.35,2.27.65,4.57.2,6.84.28s4.64,0,7,0h7.11a77,77,0,0,1,.13,9.35c0,.29-.55.65-.91.85s-.59,0-.9,0q-14.83,0-29.67,0c-1.7,0-1.76,0-1.76-1.59,0-18.67,0-37.34,0-56.18a12.71,12.71,0,0,1,1.74-.24H304.5a4.14,4.14,0,0,0,.61,0c1.15-.17,1.63.23,1.6,1.47-.08,2.81,0,5.62,0,8.71Z"/><path class="cls-3" d="M105.24,65.26c-.51,0-.89.11-1.28.11q-15,0-30,0c-1.82,0-1.87,0-1.87-1.77q0-27.57,0-55.13a5.76,5.76,0,0,1,.18-1h32.83c.58,1.84.21,3.84.25,5.81,0,1.37-.19,2.75-.3,4.12-1.3,0-2.6.15-3.9.15-5.45,0-10.9,0-16.35.05-.09,0-.17.09-.39.22V30.22H94.75c2.52,0,5,0,7.57,0,1,0,1.49.19,1.47,1.31-.06,2.43,0,4.85,0,7.27,0,1.57-.07,1.61-1.77,1.62-5.36,0-10.71,0-16.06,0h-1.4a16,16,0,0,0-.24,2c0,3.74,0,7.48,0,11.21,0,1.2.33,1.56,1.53,1.55,5.45-.06,10.9,0,16.35,0h3.11Z"/><path class="cls-2" d="M360.14,10.81c-1.31,3.31-2.6,6.54-3.84,9.67-3.27-1.13-6.32-2.38-9.49-3.21a14.4,14.4,0,0,0-10.27,1.16c-2.8,1.4-4.29,3.91-5.57,6.54a20.07,20.07,0,0,0-2,8.15c-.15,4.63-.31,9.25,1.25,13.75,1.83,5.26,5.34,8.4,11.64,8.9a32.68,32.68,0,0,0,11.89-1.61c1.31-.39,2.66-.67,4.3-1.08,0,3.1-.06,5.91,0,8.72a1.6,1.6,0,0,1-1.36,1.7,41.23,41.23,0,0,1-6.35,1.81c-3.08.46-6.21.57-9.33.74a24.21,24.21,0,0,1-9.45-1.63c-6.16-2.17-10.29-6.54-12.78-12.48a32.53,32.53,0,0,1-2.52-12c-.09-4.83-.21-9.66,1.26-14.37C320.7,15.61,327,9.18,337.45,7.2c6.66-1.26,13-.08,19.24,2.06C357.81,9.64,358.86,10.23,360.14,10.81Z"/><path class="cls-4" d="M249,41.5V63c0,2.52.28,2.39-2.49,2.39s-5.65,0-8.47,0c-1.23,0-1.63-.45-1.5-1.6.06-.6,0-1.21,0-1.81V21.13c0-.71,0-1.42,0-2.12.07-1.07-.44-1.37-1.45-1.36-3.83,0-7.67,0-11.5,0-3.28,0-2.74,0-2.75-2.76,0-1.61,0-3.23,0-4.84,0-2.7,0-2.71,2.59-2.72h37.84c.7,0,1.41,0,2.12,0,.92,0,1.29.51,1.29,1.31,0,2.62,0,5.24,0,7.87,0,1-.56,1.15-1.34,1.15-2.53,0-5.05,0-7.57,0-1.72,0-3.43,0-5.15,0s-1.63.05-1.64,1.73C249,26.77,249,34.14,249,41.5Z"/><path class="cls-1" d="M185.59,17.62a37.42,37.42,0,0,1,9.94.65,6.36,6.36,0,0,1,5,5.35c.32,3.14-.11,6-3.12,7.91A11.74,11.74,0,0,1,192,33c-2.07.18-4.17,0-6.39,0Z"/><path class="cls-1" d="M130.62,41.08c2.46-8.21,4.82-16.08,7.33-24.43C140.54,25,143,33,145.52,41.08Z"/></g></g></svg>